<svg xmlns="http://www.w3.org/2000/svg" xmlns:xlink="http://www.w3.org/1999/xlink" width="500" zoomAndPan="magnify" viewBox="0 0 375 374.999991" height="500" preserveAspectRatio="xMidYMid meet" version="1.0"><defs><clipPath id="92dc21c808"><path d="M 29.023438 161.085938 L 346.273438 161.085938 L 346.273438 213.585938 L 29.023438 213.585938 Z M 29.023438 161.085938 " clip-rule="nonzero"/></clipPath></defs><rect x="-37.5" width="450" fill="#ffffff" y="-37.499999" height="449.999989" fill-opacity="1"/><rect x="-37.5" width="450" fill="#003481" y="-37.499999" height="449.999989" fill-opacity="1"/><g clip-path="url(#92dc21c808)"><path fill="#ffffff" d="M 153.460938 165.882812 C 153.460938 164.933594 153.75 164.007812 154.28125 163.222656 C 154.816406 162.433594 155.574219 161.824219 156.457031 161.460938 C 157.339844 161.101562 158.3125 161.011719 159.246094 161.199219 C 160.183594 161.386719 161.042969 161.847656 161.714844 162.519531 C 162.386719 163.195312 162.84375 164.050781 163.027344 164.980469 C 163.210938 165.910156 163.109375 166.875 162.742188 167.75 C 162.375 168.625 161.75 169.371094 160.957031 169.894531 C 160.160156 170.421875 159.226562 170.699219 158.269531 170.695312 C 157.636719 170.691406 157.007812 170.566406 156.421875 170.324219 C 155.839844 170.078125 155.308594 169.722656 154.859375 169.277344 C 154.414062 168.832031 154.058594 168.300781 153.820312 167.71875 C 153.578125 167.136719 153.457031 166.511719 153.460938 165.882812 Z M 234.347656 202.683594 C 235.304688 202.6875 236.242188 202.410156 237.042969 201.882812 C 237.84375 201.355469 238.464844 200.605469 238.835938 199.726562 C 239.203125 198.847656 239.304688 197.878906 239.117188 196.945312 C 238.933594 196.007812 238.472656 195.148438 237.796875 194.476562 C 237.121094 193.800781 236.257812 193.339844 235.316406 193.152344 C 234.375 192.964844 233.398438 193.058594 232.511719 193.425781 C 231.625 193.789062 230.867188 194.40625 230.335938 195.195312 C 229.804688 195.988281 229.515625 196.917969 229.515625 197.871094 C 229.515625 199.144531 230.023438 200.367188 230.929688 201.269531 C 231.835938 202.171875 233.0625 202.679688 234.347656 202.683594 Z M 74.335938 172.863281 C 71.363281 172.894531 68.464844 173.800781 66.007812 175.460938 C 63.550781 177.125 61.644531 179.472656 60.527344 182.210938 C 59.410156 184.945312 59.136719 187.949219 59.734375 190.839844 C 60.335938 193.734375 61.78125 196.382812 63.894531 198.460938 C 66.007812 200.539062 68.695312 201.949219 71.613281 202.511719 C 74.53125 203.078125 77.550781 202.773438 80.296875 201.636719 C 83.039062 200.496094 85.382812 198.582031 87.03125 196.121094 C 88.679688 193.664062 89.558594 190.78125 89.558594 187.828125 C 89.625 185.832031 89.273438 183.84375 88.53125 181.988281 C 87.785156 180.132812 86.664062 178.453125 85.234375 177.046875 C 83.804688 175.640625 82.101562 174.546875 80.222656 173.824219 C 78.347656 173.105469 76.34375 172.777344 74.335938 172.863281 Z M 74.335938 195.789062 C 70.195312 195.789062 67.285156 192.515625 67.285156 187.828125 C 67.285156 183.136719 70.175781 179.863281 74.335938 179.863281 C 78.492188 179.863281 81.382812 183.136719 81.382812 187.828125 C 81.382812 192.515625 78.582031 195.789062 74.335938 195.789062 Z M 144.121094 188.578125 C 143.824219 187.988281 143.4375 187.445312 142.972656 186.96875 L 142.710938 186.6875 L 142.992188 186.425781 C 143.433594 185.949219 143.839844 185.441406 144.207031 184.90625 L 151.945312 173.441406 L 142.550781 173.441406 L 136.71875 182.417969 C 136.46875 182.6875 136.15625 182.894531 135.8125 183.019531 C 135.464844 183.144531 135.09375 183.183594 134.726562 183.136719 L 133.40625 183.136719 L 133.40625 166.179688 C 133.40625 162.800781 131.273438 162.328125 128.980469 162.328125 L 125.050781 162.328125 L 125.050781 202.351562 L 133.386719 202.351562 L 133.386719 190.347656 L 134.164062 190.347656 C 135.113281 190.347656 135.765625 190.453125 136.066406 190.976562 L 140.683594 199.535156 C 141.082031 200.476562 141.789062 201.261719 142.691406 201.757812 C 143.589844 202.257812 144.632812 202.441406 145.652344 202.28125 L 152.050781 202.28125 L 147.273438 194.460938 Z M 184.597656 172.792969 C 183.019531 172.757812 181.453125 173.054688 179.996094 173.65625 C 178.539062 174.257812 177.226562 175.15625 176.140625 176.292969 L 175.628906 176.800781 L 175.453125 176.101562 C 175.179688 175.242188 174.609375 174.503906 173.839844 174.023438 C 173.074219 173.542969 172.15625 173.347656 171.257812 173.476562 L 167.503906 173.476562 L 167.503906 202.335938 L 175.820312 202.335938 L 175.820312 189.035156 C 175.796875 187.847656 175.96875 186.664062 176.332031 185.535156 C 176.71875 184.066406 177.589844 182.765625 178.804688 181.847656 C 180.023438 180.929688 181.519531 180.449219 183.046875 180.476562 C 185.621094 180.476562 186.570312 181.824219 186.570312 185.34375 L 186.570312 197.925781 C 186.476562 198.523438 186.523438 199.136719 186.710938 199.714844 C 186.898438 200.289062 187.222656 200.8125 187.652344 201.242188 C 188.085938 201.671875 188.613281 201.992188 189.195312 202.179688 C 189.773438 202.367188 190.390625 202.414062 190.996094 202.316406 L 194.90625 202.316406 L 194.90625 183.960938 C 194.960938 176.660156 191.382812 172.792969 184.597656 172.792969 Z M 158.375 173.441406 L 154.464844 173.441406 L 154.464844 202.351562 L 162.746094 202.351562 L 162.746094 177.851562 C 162.839844 177.257812 162.792969 176.648438 162.609375 176.078125 C 162.421875 175.503906 162.105469 174.984375 161.679688 174.554688 C 161.253906 174.125 160.734375 173.800781 160.160156 173.609375 C 159.585938 173.414062 158.976562 173.359375 158.375 173.441406 Z M 106.867188 172.863281 C 103.890625 172.894531 100.996094 173.800781 98.539062 175.460938 C 96.082031 177.125 94.175781 179.472656 93.058594 182.210938 C 91.941406 184.945312 91.667969 187.949219 92.265625 190.839844 C 92.867188 193.734375 94.3125 196.382812 96.425781 198.460938 C 98.539062 200.539062 101.222656 201.949219 104.144531 202.511719 C 107.0625 203.078125 110.082031 202.773438 112.828125 201.636719 C 115.570312 200.496094 117.914062 198.582031 119.5625 196.121094 C 121.210938 193.664062 122.089844 190.78125 122.089844 187.828125 C 122.15625 185.832031 121.804688 183.84375 121.0625 181.988281 C 120.316406 180.132812 119.195312 178.453125 117.765625 177.046875 C 116.335938 175.640625 114.628906 174.546875 112.753906 173.824219 C 110.878906 173.105469 108.875 172.777344 106.867188 172.863281 Z M 106.867188 195.789062 C 102.722656 195.789062 99.816406 192.515625 99.816406 187.828125 C 99.816406 183.136719 102.707031 179.863281 106.867188 179.863281 C 111.023438 179.863281 113.914062 183.136719 113.914062 187.828125 C 113.914062 192.515625 111.113281 195.789062 106.867188 195.789062 Z M 284.375 172.863281 C 281.402344 172.894531 278.507812 173.800781 276.050781 175.460938 C 273.589844 177.125 271.6875 179.472656 270.570312 182.210938 C 269.453125 184.945312 269.175781 187.949219 269.777344 190.839844 C 270.375 193.734375 271.824219 196.382812 273.9375 198.460938 C 276.050781 200.539062 278.734375 201.949219 281.652344 202.511719 C 284.570312 203.078125 287.59375 202.773438 290.335938 201.636719 C 293.078125 200.496094 295.425781 198.582031 297.074219 196.121094 C 298.722656 193.664062 299.601562 190.78125 299.601562 187.828125 C 299.667969 185.832031 299.316406 183.84375 298.570312 181.988281 C 297.828125 180.132812 296.707031 178.453125 295.277344 177.046875 C 293.847656 175.640625 292.140625 174.546875 290.265625 173.824219 C 288.390625 173.105469 286.386719 172.777344 284.375 172.863281 Z M 284.375 195.789062 C 280.234375 195.789062 277.328125 192.515625 277.328125 187.828125 C 277.328125 183.136719 280.21875 179.863281 284.375 179.863281 C 288.535156 179.863281 291.425781 183.136719 291.425781 187.828125 C 291.425781 192.515625 288.621094 195.789062 284.375 195.789062 Z M 222.433594 173.371094 C 221.757812 173.308594 221.078125 173.4375 220.472656 173.746094 C 219.871094 174.058594 219.367188 174.535156 219.03125 175.121094 L 218.820312 175.558594 L 218.433594 175.226562 C 216.289062 173.484375 213.570312 172.585938 210.800781 172.707031 C 203.066406 172.707031 197.832031 178.5 197.832031 187.109375 C 197.832031 195.71875 203.242188 201.722656 210.960938 201.722656 C 213.234375 201.824219 215.480469 201.171875 217.339844 199.867188 L 217.976562 199.375 L 217.976562 200.183594 C 217.976562 204.050781 215.453125 206.183594 210.925781 206.183594 C 209.023438 206.15625 207.140625 205.808594 205.355469 205.152344 C 205.015625 204.980469 204.636719 204.886719 204.253906 204.886719 C 203.871094 204.886719 203.492188 204.972656 203.148438 205.144531 C 202.808594 205.3125 202.507812 205.5625 202.28125 205.867188 C 202.050781 206.171875 201.898438 206.527344 201.832031 206.902344 L 200.230469 210.890625 L 200.8125 211.1875 C 203.964844 212.746094 207.441406 213.550781 210.960938 213.535156 C 218.011719 213.535156 226.238281 209.929688 226.238281 199.832031 L 226.238281 173.371094 Z M 212.421875 194.53125 C 207.914062 194.53125 206.292969 190.59375 206.292969 186.917969 C 206.292969 185.289062 206.695312 179.917969 211.984375 179.917969 C 214.609375 179.917969 218.132812 180.652344 218.132812 187.09375 C 218.132812 193.25 215.03125 194.53125 212.421875 194.53125 Z M 52.113281 181.824219 L 50.898438 181.160156 L 51.953125 180.285156 C 53.03125 179.34375 53.882812 178.183594 54.457031 176.878906 C 55.027344 175.574219 55.304688 174.164062 55.265625 172.742188 C 55.265625 166.441406 50.351562 162.382812 42.773438 162.382812 L 33.117188 162.382812 C 32.035156 162.421875 31.007812 162.871094 30.25 163.640625 C 29.496094 164.410156 29.0625 165.4375 29.046875 166.511719 L 29.046875 202.210938 L 42.929688 202.210938 C 51.371094 202.210938 56.835938 197.644531 56.835938 190.558594 C 56.90625 188.816406 56.507812 187.085938 55.675781 185.550781 C 54.84375 184.015625 53.613281 182.726562 52.113281 181.824219 Z M 36.746094 171.726562 C 36.746094 169.871094 37.539062 168.996094 39.265625 168.890625 L 42.789062 168.890625 C 43.425781 168.835938 44.066406 168.917969 44.667969 169.136719 C 45.269531 169.351562 45.8125 169.695312 46.261719 170.144531 C 46.714844 170.59375 47.058594 171.136719 47.277344 171.734375 C 47.492188 172.332031 47.574219 172.96875 47.511719 173.597656 C 47.582031 174.242188 47.511719 174.890625 47.304688 175.5 C 47.097656 176.109375 46.761719 176.671875 46.316406 177.140625 C 45.867188 177.609375 45.328125 177.976562 44.722656 178.214844 C 44.121094 178.457031 43.472656 178.566406 42.824219 178.535156 L 36.746094 178.535156 Z M 43.496094 195.457031 L 36.746094 195.457031 L 36.746094 187.441406 C 36.746094 185.691406 37.433594 184.835938 38.894531 184.625 L 43.496094 184.625 C 44.886719 184.703125 46.199219 185.308594 47.15625 186.316406 C 48.113281 187.320312 48.648438 188.65625 48.648438 190.039062 C 48.648438 191.425781 48.113281 192.757812 47.15625 193.765625 C 46.199219 194.773438 44.886719 195.378906 43.496094 195.457031 Z M 336.609375 172.882812 C 334.894531 172.886719 333.207031 173.277344 331.667969 174.019531 C 330.128906 174.761719 328.773438 175.839844 327.710938 177.167969 L 327.109375 177.9375 L 326.632812 177.082031 C 325.871094 175.707031 324.726562 174.582031 323.335938 173.835938 C 321.945312 173.09375 320.367188 172.761719 318.792969 172.882812 C 317.355469 172.90625 315.933594 173.21875 314.621094 173.804688 C 313.308594 174.394531 312.132812 175.238281 311.160156 176.292969 L 310.386719 177.132812 L 310.085938 176.03125 C 309.808594 175.210938 309.253906 174.515625 308.511719 174.058594 C 307.773438 173.605469 306.894531 173.425781 306.035156 173.546875 L 302.507812 173.546875 L 302.507812 202.335938 L 310.367188 202.335938 L 310.367188 189.628906 C 310.378906 188.496094 310.523438 187.371094 310.792969 186.269531 C 311.550781 183.1875 313.628906 179.882812 317.117188 180.214844 C 319.269531 180.425781 320.324219 182.070312 320.324219 185.273438 L 320.324219 202.335938 L 328.289062 202.335938 L 328.289062 189.628906 C 328.257812 188.449219 328.40625 187.265625 328.730469 186.128906 C 329.367188 183.207031 331.535156 180.195312 334.898438 180.195312 C 337.332031 180.195312 338.230469 181.5625 338.230469 185.253906 L 338.230469 198.132812 C 338.230469 201.039062 339.535156 202.335938 342.460938 202.335938 L 346.25 202.335938 L 346.25 183.960938 C 346.25 176.609375 342.988281 172.882812 336.609375 172.882812 Z M 264.640625 192.34375 C 262.558594 194.503906 259.746094 195.820312 256.742188 196.035156 C 255.65625 196.101562 254.566406 195.9375 253.546875 195.554688 C 252.523438 195.175781 251.597656 194.582031 250.824219 193.824219 C 250.046875 193.0625 249.441406 192.144531 249.046875 191.136719 C 248.652344 190.128906 248.476562 189.046875 248.53125 187.96875 C 248.441406 186.898438 248.574219 185.824219 248.929688 184.816406 C 249.285156 183.804688 249.851562 182.878906 250.59375 182.101562 C 251.335938 181.320312 252.230469 180.707031 253.226562 180.296875 C 254.222656 179.890625 255.296875 179.691406 256.375 179.722656 C 257.855469 179.722656 259.546875 180.25 259.808594 181.140625 L 259.808594 181.300781 C 259.984375 181.910156 260.351562 182.445312 260.863281 182.828125 C 261.371094 183.210938 261.992188 183.417969 262.628906 183.417969 L 266.949219 183.417969 L 266.949219 179.65625 C 266.949219 174.683594 260.585938 172.882812 256.375 172.882812 C 247.226562 172.882812 240.515625 179.234375 240.515625 187.949219 C 240.515625 196.664062 247.085938 203.035156 256.128906 203.035156 C 258.449219 203.011719 260.742188 202.511719 262.863281 201.574219 C 264.984375 200.636719 266.894531 199.273438 268.464844 197.574219 L 265.183594 191.851562 Z M 264.640625 192.34375 " fill-opacity="1" fill-rule="nonzero"/></g></svg>