<svg xmlns="http://www.w3.org/2000/svg" width="300" height="300" xmlns:v="https://vecta.io/nano"><g transform="translate(150 150)"><path vector-effect="non-scaling-stroke" d="M-150-150h300v300h-300z" fill="#e91e63"/><g fill="#fff"><path vector-effect="non-scaling-stroke" transform="translate(-141.22 -36.31)" d="M5.6 20.92h6.72l-1.76 10.2h11.56l1.72-10.2h6.72l-4.8 28h-6.64l2-11.76H9.52l-2 11.76H.88z"/><path vector-effect="non-scaling-stroke" transform="translate(-141.22 -36.32)" d="M31.28 39.72a11.39 11.39 0 0 1 1.8-4.92 10.91 10.91 0 0 1 3.58-3.42 8.88 8.88 0 0 1 4.58-1.26 5.87 5.87 0 0 1 3.54 1 6.47 6.47 0 0 1 2.14 2.68l.56-3.32h6l-3.2 18.4h-5.96l.48-2.72a9.56 9.56 0 0 1-2.88 2.28 7.71 7.71 0 0 1-3.56.84A6.58 6.58 0 0 1 34.22 48a7.46 7.46 0 0 1-2.48-3.48 10.46 10.46 0 0 1-.46-4.8zm6.24 0A4.71 4.71 0 0 0 38.1 43a3 3 0 0 0 2.7 1.48 4.31 4.31 0 0 0 2.2-.68 6 6 0 0 0 1.84-1.72 5.6 5.6 0 0 0 1-2.36 5 5 0 0 0-.6-3.26A2.83 2.83 0 0 0 42.72 35a4.33 4.33 0 0 0-2.36.6 5.78 5.78 0 0 0-1.88 1.74 5.6 5.6 0 0 0-.96 2.38z"/><path vector-effect="non-scaling-stroke" d="M61.28 39.72A4 4 0 0 0 62.1 43a4 4 0 0 0 3.06 1.42 6.54 6.54 0 0 0 3.2-.74 9.23 9.23 0 0 0 2.56-1.9l-.8 5.84a10.69 10.69 0 0 1-2.62 1.22 10.92 10.92 0 0 1-3.3.46 10 10 0 0 1-5.06-1.24 7.9 7.9 0 0 1-3.26-3.42 8.43 8.43 0 0 1-.72-4.94 10.43 10.43 0 0 1 2-5 11.28 11.28 0 0 1 4.16-3.38 12.43 12.43 0 0 1 5.48-1.22 10.58 10.58 0 0 1 3.18.44 9.63 9.63 0 0 1 2.46 1.16l-.8 5.92a5.08 5.08 0 0 0-2-2 5.66 5.66 0 0 0-2.76-.7 5.74 5.74 0 0 0-5.64 4.76zm27.4-9.2H96l-9.2 7.8 6.56 10.6h-6.72l-5.8-9.44-1.6 9.44h-5.72l5.28-31.2h5.8l-3.28 19zm7.16 9.2a11.39 11.39 0 0 1 1.8-4.92 10.91 10.91 0 0 1 3.58-3.42 8.85 8.85 0 0 1 4.58-1.26 5.87 5.87 0 0 1 3.54 1 6.55 6.55 0 0 1 2.14 2.68l.56-3.32h6l-3.2 18.4h-5.92l.48-2.72a9.56 9.56 0 0 1-2.88 2.28 7.71 7.71 0 0 1-3.56.84A6.58 6.58 0 0 1 98.78 48a7.39 7.39 0 0 1-2.48-3.48 10.33 10.33 0 0 1-.46-4.8zm6.24 0a4.66 4.66 0 0 0 .58 3.24 3 3 0 0 0 2.7 1.48 4.31 4.31 0 0 0 2.24-.64 6 6 0 0 0 1.84-1.72 5.73 5.73 0 0 0 1-2.36 5 5 0 0 0-.6-3.26 2.83 2.83 0 0 0-2.56-1.46 4.31 4.31 0 0 0-2.36.6 5.68 5.68 0 0 0-1.92 1.74 5.6 5.6 0 0 0-.92 2.38z" transform="translate(-141.22 -36.31)"/><path vector-effect="non-scaling-stroke" transform="translate(-141.22 -36.32)" d="M120.28 30.52h3.12l1.08-6.4h5.8l-1.12 6.4h3.2l-.88 5h-3.2L126 48.92h-5.72l2.28-13.4h-3.16z"/><path vector-effect="non-scaling-stroke" transform="translate(-141.22 -36.31)" d="M145.08 37.72a4.88 4.88 0 0 0-.14-2.28 1.72 1.72 0 0 0-1.74-1.08 2.94 2.94 0 0 0-2.38.92 5.51 5.51 0 0 0-1.38 2.24l-2 11.4h-6l5.36-31.2h6l-2.6 15.12a7.17 7.17 0 0 1 2.34-2.14 6.51 6.51 0 0 1 3.34-.82 5.77 5.77 0 0 1 3.46.9 4.32 4.32 0 0 1 1.66 2.48 9.58 9.58 0 0 1 .12 3.58l-2.08 12.08h-6z"/><path vector-effect="non-scaling-stroke" transform="translate(-141.21 -36.31)" d="M154.32 39.72a10.19 10.19 0 0 1 2-5 11.3 11.3 0 0 1 4.14-3.38 12.21 12.21 0 0 1 5.42-1.22 9.91 9.91 0 0 1 5 1.24 7.87 7.87 0 0 1 3.22 3.42 8.59 8.59 0 0 1 .7 4.94 10.33 10.33 0 0 1-2 5 11.41 11.41 0 0 1-4.14 3.4 12.27 12.27 0 0 1-5.42 1.22 9.72 9.72 0 0 1-5-1.26 8.08 8.08 0 0 1-3.24-3.44 8.36 8.36 0 0 1-.68-4.92zm6.12 0a4.56 4.56 0 0 0 .62 3.16 3 3 0 0 0 2.66 1.4A4.54 4.54 0 0 0 167 43a5.41 5.41 0 0 0 1.72-3.26 4.75 4.75 0 0 0-.62-3.2 3 3 0 0 0-2.66-1.44 4.07 4.07 0 0 0-2.28.6 5.72 5.72 0 0 0-2.72 4z"/><path vector-effect="non-scaling-stroke" transform="translate(-141.22 -36.32)" d="M190 37.72a5.07 5.07 0 0 0-.14-2.32c-.23-.69-.85-1-1.86-1a3.37 3.37 0 0 0-2.4.9 4 4 0 0 0-1.2 2.38l-2 11.28h-6l3.2-18.4h6l-.4 2.56a6.91 6.91 0 0 1 2.36-2.18 6.71 6.71 0 0 1 3.32-.78q3.32 0 4.56 2a7.22 7.22 0 0 1 .8 5l-2 11.84H188z"/><path vector-effect="non-scaling-stroke" transform="translate(-141.22 -36.31)" d="M201 42.28a15.61 15.61 0 0 0 3 2.22 5.2 5.2 0 0 0 2.72.74 2.07 2.07 0 0 0 1.36-.46 1.54 1.54 0 0 0-.28-2.62 15.14 15.14 0 0 0-2.44-1.08 9.71 9.71 0 0 1-2.24-1.16 5.36 5.36 0 0 1-1.66-1.82 4.54 4.54 0 0 1-.5-2.66 5 5 0 0 1 1.18-2.94 6.27 6.27 0 0 1 2.6-1.78 9.43 9.43 0 0 1 3.38-.6 10.43 10.43 0 0 1 4.14.8 16.06 16.06 0 0 1 3.38 2l-2.48 3.88a10.44 10.44 0 0 0-2.28-1.8 5.14 5.14 0 0 0-2.56-.74 2.24 2.24 0 0 0-1.32.36 1.31 1.31 0 0 0-.6.92 1.09 1.09 0 0 0 .42 1.06 4.41 4.41 0 0 0 1.36.74l1.82.72a13.49 13.49 0 0 1 2.4 1.22 5.16 5.16 0 0 1 1.68 1.72 4.52 4.52 0 0 1 .48 2.64 6.09 6.09 0 0 1-2.24 4.44 7.88 7.88 0 0 1-5.08 1.6 12.38 12.38 0 0 1-5.12-1 17.78 17.78 0 0 1-4-2.46z"/><path vector-effect="non-scaling-stroke" transform="translate(-141.21 -36.31)" d="M251.1 1.22c-.18 0-30.31 17.4-30.4 17.55s-.09 34.94 0 35.1 30.22 17.54 30.4 17.54S281.4 54 281.49 53.87s.09-34.95 0-35.1S251.27 1.22 251.1 1.22zm-25.3 20.62h5.72v18.48c0 3.12 1.72 5.24 5 5.24s5-2.12 5-5.24V21.84h5.76v18.8c0 6.6-4.6 10.16-10.76 10.16s-10.72-3.56-10.72-10.16zm27.31 0H259V33.2l10-11.36h6.84L264.23 35l12.16 14.88h-7L259 37.16v12.68h-5.92z"/></g></g></svg>